<svg xmlns="http://www.w3.org/2000/svg" xmlns:xlink="http://www.w3.org/1999/xlink" width="42" zoomAndPan="magnify" viewBox="0 0 31.5 31.499999" height="42" preserveAspectRatio="xMidYMid meet" version="1.0"><defs><clipPath id="397b17f49e"><path d="M 10 3.101562 L 21 3.101562 L 21 13 L 10 13 Z M 10 3.101562 " clip-rule="nonzero"/></clipPath><clipPath id="e2766190c5"><path d="M 3.101562 7 L 11 7 L 11 14 L 3.101562 14 Z M 3.101562 7 " clip-rule="nonzero"/></clipPath><clipPath id="8e9d2d3af7"><path d="M 3.101562 14 L 9 14 L 9 20 L 3.101562 20 Z M 3.101562 14 " clip-rule="nonzero"/></clipPath></defs><path fill="#3730a3" d="M 21.34375 19.875 C 21.082031 19.875 20.824219 19.898438 20.566406 19.949219 C 20.308594 20 20.058594 20.078125 19.816406 20.175781 C 19.574219 20.277344 19.34375 20.402344 19.125 20.546875 C 18.90625 20.691406 18.707031 20.859375 18.519531 21.042969 C 18.335938 21.226562 18.167969 21.429688 18.023438 21.648438 C 17.878906 21.867188 17.753906 22.097656 17.65625 22.339844 C 17.554688 22.582031 17.480469 22.832031 17.429688 23.085938 C 17.375 23.34375 17.351562 23.605469 17.351562 23.867188 C 17.351562 24.128906 17.375 24.390625 17.429688 24.644531 C 17.480469 24.902344 17.554688 25.152344 17.65625 25.394531 C 17.753906 25.636719 17.878906 25.867188 18.023438 26.085938 C 18.167969 26.304688 18.335938 26.503906 18.519531 26.691406 C 18.707031 26.875 18.90625 27.042969 19.125 27.1875 C 19.34375 27.332031 19.574219 27.457031 19.816406 27.554688 C 20.058594 27.65625 20.308594 27.734375 20.566406 27.785156 C 20.824219 27.835938 21.082031 27.859375 21.34375 27.859375 C 21.605469 27.859375 21.867188 27.835938 22.125 27.785156 C 22.382812 27.734375 22.628906 27.65625 22.871094 27.554688 C 23.113281 27.457031 23.34375 27.332031 23.5625 27.1875 C 23.78125 27.042969 23.984375 26.875 24.167969 26.691406 C 24.355469 26.503906 24.519531 26.304688 24.664062 26.085938 C 24.8125 25.867188 24.933594 25.636719 25.035156 25.394531 C 25.132812 25.152344 25.210938 24.902344 25.261719 24.644531 C 25.3125 24.390625 25.339844 24.128906 25.339844 23.867188 C 25.335938 23.605469 25.3125 23.34375 25.261719 23.089844 C 25.210938 22.832031 25.132812 22.582031 25.03125 22.339844 C 24.933594 22.097656 24.808594 21.867188 24.664062 21.648438 C 24.519531 21.429688 24.351562 21.230469 24.167969 21.042969 C 23.980469 20.859375 23.78125 20.695312 23.5625 20.546875 C 23.34375 20.402344 23.113281 20.277344 22.871094 20.179688 C 22.628906 20.078125 22.378906 20.003906 22.125 19.949219 C 21.867188 19.898438 21.605469 19.875 21.34375 19.875 Z M 23.027344 24.496094 L 21.976562 24.496094 L 21.976562 25.546875 C 21.976562 25.722656 21.914062 25.871094 21.789062 25.996094 C 21.667969 26.117188 21.519531 26.179688 21.34375 26.179688 C 21.171875 26.179688 21.023438 26.117188 20.898438 25.996094 C 20.777344 25.871094 20.714844 25.722656 20.714844 25.546875 L 20.714844 24.496094 L 19.664062 24.496094 C 19.488281 24.496094 19.339844 24.4375 19.21875 24.3125 C 19.09375 24.191406 19.03125 24.039062 19.03125 23.867188 C 19.03125 23.691406 19.09375 23.542969 19.21875 23.421875 C 19.339844 23.296875 19.488281 23.238281 19.664062 23.238281 L 20.714844 23.238281 L 20.714844 22.183594 C 20.714844 22.011719 20.777344 21.863281 20.898438 21.738281 C 21.023438 21.617188 21.171875 21.554688 21.34375 21.554688 C 21.519531 21.554688 21.667969 21.617188 21.789062 21.738281 C 21.914062 21.863281 21.976562 22.011719 21.976562 22.183594 L 21.976562 23.238281 L 23.027344 23.238281 C 23.199219 23.238281 23.347656 23.296875 23.472656 23.421875 C 23.59375 23.542969 23.65625 23.691406 23.65625 23.867188 C 23.65625 24.039062 23.59375 24.191406 23.472656 24.3125 C 23.347656 24.4375 23.199219 24.496094 23.027344 24.496094 Z M 23.027344 24.496094 " fill-opacity="1" fill-rule="nonzero"/><g clip-path="url(#397b17f49e)"><path fill="#3730a3" d="M 20.292969 7.894531 C 20.292969 8.210938 20.261719 8.523438 20.199219 8.835938 C 20.140625 9.148438 20.046875 9.449219 19.925781 9.742188 C 19.804688 10.035156 19.65625 10.316406 19.480469 10.578125 C 19.300781 10.84375 19.101562 11.085938 18.878906 11.3125 C 18.652344 11.535156 18.410156 11.734375 18.144531 11.914062 C 17.882812 12.089844 17.601562 12.238281 17.308594 12.359375 C 17.015625 12.480469 16.714844 12.574219 16.402344 12.632812 C 16.089844 12.695312 15.777344 12.726562 15.460938 12.726562 C 15.140625 12.726562 14.828125 12.695312 14.515625 12.632812 C 14.207031 12.574219 13.902344 12.480469 13.609375 12.359375 C 13.316406 12.238281 13.039062 12.089844 12.773438 11.914062 C 12.511719 11.734375 12.265625 11.535156 12.042969 11.3125 C 11.816406 11.085938 11.617188 10.84375 11.441406 10.578125 C 11.265625 10.316406 11.113281 10.035156 10.992188 9.742188 C 10.871094 9.449219 10.78125 9.148438 10.71875 8.835938 C 10.65625 8.523438 10.625 8.210938 10.625 7.894531 C 10.625 7.574219 10.65625 7.261719 10.71875 6.949219 C 10.78125 6.636719 10.871094 6.335938 10.992188 6.042969 C 11.113281 5.75 11.265625 5.472656 11.441406 5.207031 C 11.617188 4.941406 11.816406 4.699219 12.042969 4.476562 C 12.265625 4.25 12.511719 4.050781 12.773438 3.875 C 13.039062 3.695312 13.316406 3.546875 13.609375 3.425781 C 13.902344 3.304688 14.207031 3.214844 14.515625 3.152344 C 14.828125 3.089844 15.140625 3.058594 15.460938 3.058594 C 15.777344 3.058594 16.089844 3.089844 16.402344 3.152344 C 16.714844 3.214844 17.015625 3.304688 17.308594 3.425781 C 17.601562 3.546875 17.882812 3.695312 18.144531 3.875 C 18.410156 4.050781 18.652344 4.25 18.878906 4.476562 C 19.101562 4.699219 19.300781 4.941406 19.480469 5.207031 C 19.65625 5.472656 19.804688 5.75 19.925781 6.042969 C 20.046875 6.335938 20.140625 6.636719 20.199219 6.949219 C 20.261719 7.261719 20.292969 7.574219 20.292969 7.894531 Z M 20.292969 7.894531 " fill-opacity="1" fill-rule="nonzero"/></g><g clip-path="url(#e2766190c5)"><path fill="#3730a3" d="M 10.203125 10.414062 C 10.203125 10.832031 10.125 11.234375 9.964844 11.621094 C 9.804688 12.007812 9.578125 12.347656 9.28125 12.644531 C 8.984375 12.941406 8.644531 13.167969 8.257812 13.328125 C 7.871094 13.488281 7.46875 13.566406 7.050781 13.566406 C 6.632812 13.566406 6.230469 13.488281 5.847656 13.328125 C 5.460938 13.167969 5.117188 12.941406 4.824219 12.644531 C 4.527344 12.347656 4.300781 12.007812 4.140625 11.621094 C 3.980469 11.234375 3.898438 10.832031 3.898438 10.414062 C 3.898438 9.996094 3.980469 9.59375 4.140625 9.207031 C 4.300781 8.824219 4.527344 8.480469 4.824219 8.1875 C 5.117188 7.890625 5.460938 7.664062 5.847656 7.503906 C 6.230469 7.34375 6.632812 7.261719 7.050781 7.261719 C 7.46875 7.261719 7.871094 7.34375 8.257812 7.503906 C 8.644531 7.664062 8.984375 7.890625 9.28125 8.1875 C 9.578125 8.480469 9.804688 8.824219 9.964844 9.207031 C 10.125 9.59375 10.203125 9.996094 10.203125 10.414062 Z M 10.203125 10.414062 " fill-opacity="1" fill-rule="nonzero"/></g><path fill="#3730a3" d="M 27.019531 10.414062 C 27.019531 10.832031 26.941406 11.234375 26.78125 11.621094 C 26.621094 12.007812 26.390625 12.347656 26.097656 12.644531 C 25.800781 12.941406 25.460938 13.167969 25.074219 13.328125 C 24.6875 13.488281 24.285156 13.566406 23.867188 13.566406 C 23.449219 13.566406 23.046875 13.488281 22.660156 13.328125 C 22.273438 13.167969 21.933594 12.941406 21.636719 12.644531 C 21.34375 12.347656 21.113281 12.007812 20.953125 11.621094 C 20.792969 11.234375 20.714844 10.832031 20.714844 10.414062 C 20.714844 9.996094 20.792969 9.59375 20.953125 9.207031 C 21.113281 8.824219 21.34375 8.480469 21.636719 8.1875 C 21.933594 7.890625 22.273438 7.664062 22.660156 7.503906 C 23.046875 7.34375 23.449219 7.261719 23.867188 7.261719 C 24.285156 7.261719 24.6875 7.34375 25.074219 7.503906 C 25.460938 7.664062 25.800781 7.890625 26.097656 8.1875 C 26.390625 8.480469 26.621094 8.824219 26.78125 9.207031 C 26.941406 9.59375 27.019531 9.996094 27.019531 10.414062 Z M 27.019531 10.414062 " fill-opacity="1" fill-rule="nonzero"/><path fill="#3730a3" d="M 22.941406 18.855469 C 22.589844 18.746094 22.230469 18.671875 21.863281 18.636719 C 21.496094 18.601562 21.132812 18.605469 20.765625 18.644531 C 20.398438 18.6875 20.042969 18.765625 19.691406 18.882812 C 19.34375 19 19.007812 19.152344 18.691406 19.335938 C 18.371094 19.523438 18.078125 19.742188 17.804688 19.992188 C 17.535156 20.238281 17.289062 20.511719 17.074219 20.8125 C 16.863281 21.113281 16.679688 21.429688 16.53125 21.769531 C 16.386719 22.105469 16.273438 22.453125 16.199219 22.816406 L 9.289062 22.816406 C 9.003906 22.8125 8.738281 22.75 8.480469 22.628906 C 8.226562 22.503906 8.007812 22.332031 7.828125 22.113281 C 7.648438 21.894531 7.527344 21.648438 7.457031 21.375 C 7.386719 21.101562 7.378906 20.824219 7.429688 20.546875 C 7.605469 19.695312 7.90625 18.890625 8.332031 18.136719 C 8.761719 17.382812 9.296875 16.710938 9.9375 16.125 C 10.578125 15.542969 11.296875 15.070312 12.085938 14.714844 C 12.878906 14.355469 13.707031 14.128906 14.570312 14.035156 C 15.433594 13.941406 16.289062 13.984375 17.136719 14.164062 C 17.988281 14.339844 18.789062 14.648438 19.542969 15.082031 C 20.292969 15.511719 20.960938 16.050781 21.542969 16.699219 C 22.125 17.34375 22.589844 18.0625 22.941406 18.855469 Z M 22.941406 18.855469 " fill-opacity="1" fill-rule="nonzero"/><g clip-path="url(#8e9d2d3af7)"><path fill="#3730a3" d="M 8.96875 15.316406 C 7.746094 16.46875 6.894531 17.847656 6.40625 19.453125 L 3.6875 19.453125 C 3.515625 19.453125 3.367188 19.390625 3.246094 19.265625 C 3.121094 19.144531 3.058594 18.996094 3.058594 18.824219 C 3.058594 18.476562 3.105469 18.136719 3.191406 17.800781 C 3.28125 17.464844 3.410156 17.148438 3.582031 16.847656 C 3.753906 16.546875 3.960938 16.269531 4.207031 16.023438 C 4.449219 15.777344 4.71875 15.566406 5.015625 15.386719 C 5.316406 15.210938 5.628906 15.074219 5.964844 14.980469 C 6.296875 14.886719 6.636719 14.835938 6.984375 14.828125 C 7.328125 14.824219 7.671875 14.863281 8.007812 14.945312 C 8.34375 15.027344 8.664062 15.152344 8.96875 15.316406 Z M 8.96875 15.316406 " fill-opacity="1" fill-rule="nonzero"/></g><path fill="#3730a3" d="M 27.859375 18.824219 C 27.859375 18.996094 27.796875 19.144531 27.675781 19.265625 C 27.550781 19.390625 27.402344 19.453125 27.230469 19.453125 L 24.589844 19.453125 L 24.09375 18.34375 C 23.582031 17.191406 22.867188 16.179688 21.949219 15.316406 C 22.253906 15.152344 22.574219 15.027344 22.910156 14.945312 C 23.246094 14.863281 23.589844 14.824219 23.9375 14.828125 C 24.28125 14.835938 24.621094 14.886719 24.957031 14.980469 C 25.289062 15.074219 25.605469 15.210938 25.902344 15.386719 C 26.199219 15.566406 26.472656 15.777344 26.714844 16.023438 C 26.957031 16.269531 27.164062 16.546875 27.335938 16.847656 C 27.507812 17.148438 27.636719 17.464844 27.726562 17.800781 C 27.816406 18.136719 27.859375 18.476562 27.859375 18.824219 Z M 27.859375 18.824219 " fill-opacity="1" fill-rule="nonzero"/></svg>