<svg xmlns="http://www.w3.org/2000/svg" xmlns:xlink="http://www.w3.org/1999/xlink" width="42" zoomAndPan="magnify" viewBox="0 0 31.5 31.499999" height="42" preserveAspectRatio="xMidYMid meet" version="1.0"><defs><clipPath id="0fd90eb04e"><path d="M 5 4.320312 L 26.46875 4.320312 L 26.46875 26.46875 L 5 26.46875 Z M 5 4.320312 " clip-rule="nonzero"/></clipPath></defs><g clip-path="url(#0fd90eb04e)"><path fill="#ffffff" d="M 8.511719 4.320312 C 6.972656 4.320312 5.71875 5.574219 5.71875 7.113281 L 5.71875 23.890625 C 5.71875 25.433594 6.972656 26.6875 8.511719 26.6875 L 21.09375 26.6875 C 22.636719 26.6875 23.890625 25.433594 23.890625 23.890625 L 23.890625 7.113281 C 23.890625 5.574219 22.636719 4.320312 21.09375 4.320312 Z M 13.40625 16.902344 L 16.203125 16.902344 C 18.132812 16.902344 19.695312 18.464844 19.695312 20.394531 C 19.695312 20.78125 19.382812 21.09375 18.996094 21.09375 L 10.609375 21.09375 C 10.226562 21.09375 9.910156 20.78125 9.910156 20.394531 C 9.910156 18.464844 11.476562 16.902344 13.40625 16.902344 Z M 12.007812 12.707031 C 12.007812 12.335938 12.078125 11.980469 12.21875 11.636719 C 12.363281 11.292969 12.566406 10.992188 12.828125 10.730469 C 13.089844 10.46875 13.390625 10.265625 13.734375 10.125 C 14.078125 9.980469 14.433594 9.910156 14.804688 9.910156 C 15.175781 9.910156 15.53125 9.980469 15.875 10.125 C 16.214844 10.265625 16.519531 10.46875 16.78125 10.730469 C 17.042969 10.992188 17.246094 11.292969 17.386719 11.636719 C 17.527344 11.980469 17.601562 12.335938 17.601562 12.707031 C 17.601562 13.078125 17.527344 13.433594 17.386719 13.777344 C 17.246094 14.121094 17.042969 14.421875 16.78125 14.683594 C 16.519531 14.945312 16.214844 15.148438 15.875 15.289062 C 15.53125 15.433594 15.175781 15.503906 14.804688 15.503906 C 14.433594 15.503906 14.078125 15.433594 13.734375 15.289062 C 13.390625 15.148438 13.089844 14.945312 12.828125 14.683594 C 12.566406 14.421875 12.363281 14.121094 12.21875 13.777344 C 12.078125 13.433594 12.007812 13.078125 12.007812 12.707031 Z M 26.6875 7.8125 C 26.6875 7.429688 26.371094 7.113281 25.988281 7.113281 C 25.601562 7.113281 25.289062 7.429688 25.289062 7.8125 L 25.289062 10.609375 C 25.289062 10.996094 25.601562 11.308594 25.988281 11.308594 C 26.371094 11.308594 26.6875 10.996094 26.6875 10.609375 Z M 25.988281 12.707031 C 25.601562 12.707031 25.289062 13.019531 25.289062 13.40625 L 25.289062 16.203125 C 25.289062 16.585938 25.601562 16.902344 25.988281 16.902344 C 26.371094 16.902344 26.6875 16.585938 26.6875 16.203125 L 26.6875 13.40625 C 26.6875 13.019531 26.371094 12.707031 25.988281 12.707031 Z M 26.6875 18.996094 C 26.6875 18.613281 26.371094 18.296875 25.988281 18.296875 C 25.601562 18.296875 25.289062 18.613281 25.289062 18.996094 L 25.289062 21.792969 C 25.289062 22.179688 25.601562 22.492188 25.988281 22.492188 C 26.371094 22.492188 26.6875 22.179688 26.6875 21.792969 Z M 26.6875 18.996094 " fill-opacity="1" fill-rule="nonzero"/></g></svg>