<svg xmlns="http://www.w3.org/2000/svg" xmlns:xlink="http://www.w3.org/1999/xlink" width="42" zoomAndPan="magnify" viewBox="0 0 31.5 31.499999" height="42" preserveAspectRatio="xMidYMid meet" version="1.0"><defs><clipPath id="e135f5fdaa"><path d="M 2.941406 2.941406 L 28.042969 2.941406 L 28.042969 28.042969 L 2.941406 28.042969 Z M 2.941406 2.941406 " clip-rule="nonzero"/></clipPath><clipPath id="061ce449c4"><path d="M 9.363281 9.308594 L 21.636719 9.308594 L 21.636719 21.699219 L 9.363281 21.699219 Z M 9.363281 9.308594 " clip-rule="nonzero"/></clipPath></defs><g clip-path="url(#e135f5fdaa)"><path fill="#ffffff" d="M 15.503906 28.066406 C 8.5625 28.066406 2.941406 22.402344 2.941406 15.503906 C 2.941406 8.601562 8.5625 2.941406 15.503906 2.941406 C 22.441406 2.941406 28.066406 8.5625 28.066406 15.503906 C 28.066406 22.441406 22.402344 28.066406 15.503906 28.066406 Z M 15.503906 3.714844 C 8.988281 3.714844 3.714844 8.988281 3.714844 15.503906 C 3.714844 22.015625 8.988281 27.289062 15.503906 27.289062 C 22.015625 27.289062 27.289062 22.015625 27.289062 15.503906 C 27.289062 8.988281 21.976562 3.714844 15.503906 3.714844 Z M 15.503906 3.714844 " fill-opacity="1" fill-rule="nonzero"/></g><g clip-path="url(#061ce449c4)"><path fill="#ffffff" d="M 16.398438 11.929688 L 16.398438 10.203125 C 18.839844 10.425781 20.761719 12.484375 20.761719 14.984375 C 20.761719 17.628906 18.617188 19.78125 15.976562 19.789062 C 15.964844 19.789062 15.957031 19.789062 15.949219 19.789062 C 15.917969 19.789062 15.21875 19.789062 14.519531 19.789062 L 13.101562 19.789062 C 12.984375 19.789062 12.871094 19.835938 12.789062 19.917969 C 12.707031 20 12.660156 20.109375 12.660156 20.226562 L 12.660156 20.414062 L 10.5625 18.933594 L 12.660156 17.453125 L 12.660156 17.640625 C 12.660156 17.882812 12.859375 18.078125 13.097656 18.078125 L 14.667969 18.078125 C 15.621094 18.078125 15.871094 18.078125 15.945312 18.078125 C 15.949219 18.078125 15.957031 18.078125 15.960938 18.078125 C 17.664062 18.078125 19.050781 16.691406 19.050781 14.988281 C 19.050781 13.433594 17.894531 12.144531 16.398438 11.929688 Z M 15.960938 9.308594 C 15.71875 9.308594 15.523438 9.503906 15.523438 9.746094 L 15.523438 12.339844 C 15.523438 12.582031 15.71875 12.777344 15.960938 12.777344 C 15.964844 12.777344 15.96875 12.777344 15.972656 12.777344 C 17.1875 12.78125 18.175781 13.773438 18.175781 14.988281 C 18.175781 16.203125 17.191406 17.195312 15.976562 17.203125 C 15.96875 17.203125 15.960938 17.203125 15.953125 17.203125 C 15.910156 17.203125 15.308594 17.203125 14.667969 17.203125 L 13.539062 17.203125 L 13.539062 16.605469 C 13.539062 16.445312 13.445312 16.292969 13.300781 16.21875 C 13.15625 16.144531 12.980469 16.15625 12.847656 16.25 L 9.550781 18.574219 C 9.433594 18.65625 9.363281 18.792969 9.363281 18.933594 C 9.363281 19.074219 9.433594 19.210938 9.550781 19.292969 L 12.847656 21.617188 C 12.980469 21.710938 13.15625 21.722656 13.300781 21.648438 C 13.445312 21.574219 13.539062 21.421875 13.539062 21.261719 L 13.539062 20.664062 L 14.519531 20.664062 C 15.617188 20.664062 15.878906 20.664062 15.945312 20.664062 C 15.949219 20.664062 15.953125 20.664062 15.960938 20.664062 C 19.089844 20.664062 21.636719 18.117188 21.636719 14.984375 C 21.636719 11.855469 19.089844 9.308594 15.960938 9.308594 " fill-opacity="1" fill-rule="nonzero"/></g></svg>